<svg id="Layer_1" data-name="Layer 1" xmlns="http://www.w3.org/2000/svg" xmlns:xlink="http://www.w3.org/1999/xlink" viewBox="0 0 183.32 223.25"><defs><style>.cls-1{fill:url(#Ikke-navngivet_forløb_3);}.cls-2{fill:url(#Ikke-navngivet_forløb_3-2);}</style><linearGradient id="Ikke-navngivet_forløb_3" y1="158.02" x2="183.11" y2="158.02" gradientTransform="matrix(1, 0, 0, -1, 0, 269.65)" gradientUnits="userSpaceOnUse"><stop offset="0" stop-color="#3da5c7"/><stop offset="0.01" stop-color="#5d9ebf"/><stop offset="0.05" stop-color="#918aa9"/><stop offset="0.09" stop-color="#b17797"/><stop offset="0.12" stop-color="#c76288"/><stop offset="0.16" stop-color="#d74c7d"/><stop offset="0.2" stop-color="#e23676"/><stop offset="0.24" stop-color="#e92271"/><stop offset="0.28" stop-color="#ed1970"/><stop offset="0.67" stop-color="#f68a21"/><stop offset="1" stop-color="#98ca3f"/></linearGradient><linearGradient id="Ikke-navngivet_forløb_3-2" x1="4" y1="158.02" x2="174.97" y2="158.02" xlink:href="#Ikke-navngivet_forløb_3"/></defs><title>logo</title><path class="cls-1" d="M119.75,223.25l-4.55-6-.27-.27L103.4,201.49,59.68,143.6l-4.62-6.16,8.64-9.6,4.94,6.66,2.78,3.65,44.81,59.6,9.55,12.57h32l-.94-1.25-.18-.27L86.42,115l-4.66-6.36,3-4L152.27,16l.24-.33,1.79-2.31H122.77l-1.18,1.45A25.87,25.87,0,0,0,119.88,17L54.11,101.56v121.6H0V.09H54.11V77.61H41.18V13.37H12.93V210.14H41.18V98l68-88.2,2.15-2.92L116.6,0h65.57L172,12.12l-7,8.7L97.72,108.6l69.85,94.15a13.53,13.53,0,0,1,1,1.25l.21.28,0,.09,5.28,7,9.19,11.86Z"/><path id="_Kurve_" data-name="&lt;Kurve&gt;" class="cls-2" d="M170.94,213.79l-5.37-7.13-.09-.08-.09-.18h0a10.06,10.06,0,0,0-.88-1.06L92.7,108.54l2.12-2.72,67-87.48,7.13-8.8L173.58,4h-55l-4,5.28-2.2,3h0L45.18,99.39V214.14H8.93V9.37H45.18V73.61h4.93V4.09H4V219.16H50.11v-119l66.53-85.53c.7-1,1.32-1.76,1.94-2.47l2.28-2.81h41.63l-.18.17-6.6,8.54-.26.35L88,107l-1.23,1.67,2.9,4,70.32,93.9.17.26,5.72,7.57H123.77l-.18-.26h0L113,200.15,68.24,140.58l-2.82-3.7h0l-2-2.73-3.17,3.52,2.64,3.52,43.74,57.91L117.7,214h0l.26.35.09.09.17.17h0l3.52,4.67h53.42Z"/></svg>